<svg width="32" height="32" viewBox="0 0 32 32" fill="none" xmlns="http://www.w3.org/2000/svg">
  <!-- Fondo con gradiente épico -->
  <defs>
    <linearGradient id="bgGradient" x1="0%" y1="0%" x2="100%" y2="100%">
      <stop offset="0%" style="stop-color:#1e40af;stop-opacity:1" />
      <stop offset="50%" style="stop-color:#3b82f6;stop-opacity:1" />
      <stop offset="100%" style="stop-color:#1e40af;stop-opacity:1" />
    </linearGradient>
    <linearGradient id="carGradient" x1="0%" y1="0%" x2="100%" y2="100%">
      <stop offset="0%" style="stop-color:#ffffff;stop-opacity:1" />
      <stop offset="50%" style="stop-color:#f8fafc;stop-opacity:1" />
      <stop offset="100%" style="stop-color:#e2e8f0;stop-opacity:1" />
    </linearGradient>
    <linearGradient id="wheelGradient" x1="0%" y1="0%" x2="100%" y2="100%">
      <stop offset="0%" style="stop-color:#1f2937;stop-opacity:1" />
      <stop offset="100%" style="stop-color:#111827;stop-opacity:1" />
    </linearGradient>
    <filter id="glow">
      <feGaussianBlur stdDeviation="1" result="coloredBlur"/>
      <feMerge> 
        <feMergeNode in="coloredBlur"/>
        <feMergeNode in="SourceGraphic"/>
      </feMerge>
    </filter>
  </defs>
  
  <!-- Fondo circular con gradiente -->
  <circle cx="16" cy="16" r="16" fill="url(#bgGradient)"/>
  
  <!-- Efecto de brillo -->
  <circle cx="16" cy="16" r="14" fill="none" stroke="rgba(255,255,255,0.2)" stroke-width="1"/>
  
  <!-- Cuerpo del auto deportivo -->
  <rect x="6" y="18" width="20" height="8" rx="2" fill="url(#carGradient)"/>
  
  <!-- Techo deportivo -->
  <path d="M8 18 L11 10 L21 10 L24 18 Z" fill="url(#carGradient)"/>
  
  <!-- Ventanas con efecto cristal -->
  <rect x="9" y="11" width="6" height="5" rx="1" fill="rgba(30,64,175,0.3)" stroke="rgba(30,64,175,0.5)" stroke-width="0.5"/>
  <rect x="17" y="11" width="6" height="5" rx="1" fill="rgba(30,64,175,0.3)" stroke="rgba(30,64,175,0.5)" stroke-width="0.5"/>
  
  <!-- Ruedas deportivas con llantas -->
  <circle cx="10" cy="26" r="3" fill="url(#wheelGradient)"/>
  <circle cx="22" cy="26" r="3" fill="url(#wheelGradient)"/>
  <circle cx="10" cy="26" r="2" fill="#374151"/>
  <circle cx="22" cy="26" r="2" fill="#374151"/>
  <circle cx="10" cy="26" r="1.5" fill="#6b7280"/>
  <circle cx="22" cy="26" r="1.5" fill="#6b7280"/>
  
  <!-- Luces delanteras con efecto LED -->
  <circle cx="7" cy="21" r="1.5" fill="#fbbf24" filter="url(#glow)"/>
  <circle cx="25" cy="21" r="1.5" fill="#fbbf24" filter="url(#glow)"/>
  
  <!-- Luces traseras -->
  <circle cx="7" cy="23" r="1" fill="#ef4444"/>
  <circle cx="25" cy="23" r="1" fill="#ef4444"/>
  
  <!-- Detalles deportivos -->
  <rect x="7" y="19" width="1" height="2" fill="#1e40af"/>
  <rect x="24" y="19" width="1" height="2" fill="#1e40af"/>
  
  <!-- Línea de velocidad -->
  <path d="M8 16 L24 16" stroke="rgba(255,255,255,0.3)" stroke-width="0.5"/>
  
  <!-- Efecto de velocidad -->
  <path d="M4 12 L6 14" stroke="rgba(255,255,255,0.4)" stroke-width="1"/>
  <path d="M4 8 L5 10" stroke="rgba(255,255,255,0.3)" stroke-width="1"/>
  <path d="M28 12 L26 14" stroke="rgba(255,255,255,0.4)" stroke-width="1"/>
  <path d="M28 8 L27 10" stroke="rgba(255,255,255,0.3)" stroke-width="1"/>
</svg>
